<?xml version="1.0" encoding="UTF-8" standalone="no"?>
<!DOCTYPE svg PUBLIC "-//W3C//DTD SVG 1.1//EN"
 "http://www.w3.org/Graphics/SVG/1.1/DTD/svg11.dtd">
<!-- Generated by graphviz version 2.40.1 (20161225.0304)
 -->
<!-- Title: nodes Pages: 1 -->
<svg width="773pt" height="266pt"
 viewBox="0.00 0.00 773.11 265.60" xmlns="http://www.w3.org/2000/svg" xmlns:xlink="http://www.w3.org/1999/xlink">
<g id="graph0" class="graph" transform="scale(1 1) rotate(0) translate(4 261.6)">
<title>nodes</title>
<polygon fill="#ffffff" stroke="transparent" points="-4,4 -4,-261.6 769.105,-261.6 769.105,4 -4,4"/>
<!-- 0 -->
<g id="node1" class="node">
<title>0</title>
<polygon fill="none" stroke="#000000" points="447.0823,-257.6 292.0227,-257.6 292.0227,-221.6 447.0823,-221.6 447.0823,-257.6"/>
<text text-anchor="middle" x="369.5525" y="-235.4" font-family="Times,serif" font-size="14.00" fill="#000000"> market_distance &lt;= 7.5 </text>
</g>
<!-- 1 -->
<g id="node2" class="node">
<title>1</title>
<polygon fill="none" stroke="#000000" points="348.7282,-185.6 218.3768,-185.6 218.3768,-149.6 348.7282,-149.6 348.7282,-185.6"/>
<text text-anchor="middle" x="283.5525" y="-163.4" font-family="Times,serif" font-size="14.00" fill="#000000"> longitude &lt;= 86.18 </text>
</g>
<!-- 0&#45;&gt;1 -->
<g id="edge1" class="edge">
<title>0&#45;&gt;1</title>
<path fill="none" stroke="#000000" d="M347.8511,-221.4314C337.3604,-212.6485 324.607,-201.9712 313.2331,-192.4489"/>
<polygon fill="#000000" stroke="#000000" points="315.1614,-189.4986 305.247,-185.7628 310.6678,-194.8659 315.1614,-189.4986"/>
<text text-anchor="middle" x="307.4535" y="-206.4653" font-family="Times,serif" font-size="14.00" fill="#000000">True</text>
</g>
<!-- 2 -->
<g id="node3" class="node">
<title>2</title>
<polygon fill="none" stroke="#000000" points="521.7282,-185.6 391.3768,-185.6 391.3768,-149.6 521.7282,-149.6 521.7282,-185.6"/>
<text text-anchor="middle" x="456.5525" y="-163.4" font-family="Times,serif" font-size="14.00" fill="#000000"> longitude &lt;= 84.46 </text>
</g>
<!-- 0&#45;&gt;2 -->
<g id="edge2" class="edge">
<title>0&#45;&gt;2</title>
<path fill="none" stroke="#000000" d="M391.5063,-221.4314C402.222,-212.5632 415.2714,-201.7637 426.8615,-192.1718"/>
<polygon fill="#000000" stroke="#000000" points="429.1333,-194.8349 434.6058,-185.7628 424.6703,-189.4422 429.1333,-194.8349"/>
<text text-anchor="middle" x="432.2577" y="-206.4523" font-family="Times,serif" font-size="14.00" fill="#000000">False</text>
</g>
<!-- 3 -->
<g id="node4" class="node">
<title>3</title>
<polygon fill="none" stroke="#000000" points="200.7282,-113.6 70.3768,-113.6 70.3768,-77.6 200.7282,-77.6 200.7282,-113.6"/>
<text text-anchor="middle" x="135.5525" y="-91.4" font-family="Times,serif" font-size="14.00" fill="#000000"> longitude &lt;= 85.34 </text>
</g>
<!-- 1&#45;&gt;3 -->
<g id="edge3" class="edge">
<title>1&#45;&gt;3</title>
<path fill="none" stroke="#000000" d="M246.2059,-149.4314C226.6756,-139.9302 202.5884,-128.2121 181.8794,-118.1374"/>
<polygon fill="#000000" stroke="#000000" points="183.1541,-114.8654 172.6306,-113.638 180.0918,-121.16 183.1541,-114.8654"/>
</g>
<!-- 4 -->
<g id="node5" class="node">
<title>4</title>
<polygon fill="none" stroke="#000000" points="348.7282,-113.6 218.3768,-113.6 218.3768,-77.6 348.7282,-77.6 348.7282,-113.6"/>
<text text-anchor="middle" x="283.5525" y="-91.4" font-family="Times,serif" font-size="14.00" fill="#000000"> longitude &lt;= 87.03 </text>
</g>
<!-- 1&#45;&gt;4 -->
<g id="edge4" class="edge">
<title>1&#45;&gt;4</title>
<path fill="none" stroke="#000000" d="M283.5525,-149.4314C283.5525,-141.731 283.5525,-132.5743 283.5525,-124.0166"/>
<polygon fill="#000000" stroke="#000000" points="287.0526,-124.0132 283.5525,-114.0133 280.0526,-124.0133 287.0526,-124.0132"/>
</g>
<!-- 5 -->
<g id="node10" class="node">
<title>5</title>
<polygon fill="none" stroke="#000000" points="546.0997,-113.6 367.0053,-113.6 367.0053,-77.6 546.0997,-77.6 546.0997,-113.6"/>
<text text-anchor="middle" x="456.5525" y="-91.4" font-family="Times,serif" font-size="14.00" fill="#000000"> drought_severity_num &lt;= 2 </text>
</g>
<!-- 2&#45;&gt;5 -->
<g id="edge9" class="edge">
<title>2&#45;&gt;5</title>
<path fill="none" stroke="#000000" d="M456.5525,-149.4314C456.5525,-141.731 456.5525,-132.5743 456.5525,-124.0166"/>
<polygon fill="#000000" stroke="#000000" points="460.0526,-124.0132 456.5525,-114.0133 453.0526,-124.0133 460.0526,-124.0132"/>
</g>
<!-- 6 -->
<g id="node11" class="node">
<title>6</title>
<polygon fill="none" stroke="#000000" points="694.7282,-113.6 564.3768,-113.6 564.3768,-77.6 694.7282,-77.6 694.7282,-113.6"/>
<text text-anchor="middle" x="629.5525" y="-91.4" font-family="Times,serif" font-size="14.00" fill="#000000"> longitude &lt;= 85.83 </text>
</g>
<!-- 2&#45;&gt;6 -->
<g id="edge10" class="edge">
<title>2&#45;&gt;6</title>
<path fill="none" stroke="#000000" d="M500.2077,-149.4314C523.4483,-139.759 552.2093,-127.7891 576.7048,-117.5944"/>
<polygon fill="#000000" stroke="#000000" points="578.3237,-120.7117 586.2112,-113.638 575.634,-114.2491 578.3237,-120.7117"/>
</g>
<!-- 7 -->
<g id="node6" class="node">
<title>7</title>
<polygon fill="#c1b2ff" stroke="#c1b2ff" points="79.1576,-41.4019 -.0526,-41.4019 -.0526,-.1981 79.1576,-.1981 79.1576,-41.4019"/>
<text text-anchor="middle" x="39.5525" y="-25" font-family="Times,serif" font-size="14.00" fill="#000000"> leaf node</text>
<text text-anchor="middle" x="39.5525" y="-8.2" font-family="Times,serif" font-size="14.00" fill="#000000"> action = 5 </text>
</g>
<!-- 3&#45;&gt;7 -->
<g id="edge5" class="edge">
<title>3&#45;&gt;7</title>
<path fill="none" stroke="#000000" d="M112.3136,-77.493C100.9336,-68.6261 86.9965,-57.7668 74.3766,-47.9338"/>
<polygon fill="#000000" stroke="#000000" points="76.3532,-45.0369 66.3138,-41.6515 72.0508,-50.5587 76.3532,-45.0369"/>
</g>
<!-- 8 -->
<g id="node7" class="node">
<title>8</title>
<polygon fill="#c1b2ff" stroke="#c1b2ff" points="176.1576,-41.4019 96.9474,-41.4019 96.9474,-.1981 176.1576,-.1981 176.1576,-41.4019"/>
<text text-anchor="middle" x="136.5525" y="-25" font-family="Times,serif" font-size="14.00" fill="#000000"> leaf node</text>
<text text-anchor="middle" x="136.5525" y="-8.2" font-family="Times,serif" font-size="14.00" fill="#000000"> action = 2 </text>
</g>
<!-- 3&#45;&gt;8 -->
<g id="edge6" class="edge">
<title>3&#45;&gt;8</title>
<path fill="none" stroke="#000000" d="M135.7946,-77.493C135.8973,-69.8083 136.0201,-60.6272 136.1365,-51.9145"/>
<polygon fill="#000000" stroke="#000000" points="139.6396,-51.6974 136.2737,-41.6515 132.6403,-51.6038 139.6396,-51.6974"/>
</g>
<!-- 9 -->
<g id="node8" class="node">
<title>9</title>
<polygon fill="#c1b2ff" stroke="#c1b2ff" points="277.1576,-41.4019 197.9474,-41.4019 197.9474,-.1981 277.1576,-.1981 277.1576,-41.4019"/>
<text text-anchor="middle" x="237.5525" y="-25" font-family="Times,serif" font-size="14.00" fill="#000000"> leaf node</text>
<text text-anchor="middle" x="237.5525" y="-8.2" font-family="Times,serif" font-size="14.00" fill="#000000"> action = 5 </text>
</g>
<!-- 4&#45;&gt;9 -->
<g id="edge7" class="edge">
<title>4&#45;&gt;9</title>
<path fill="none" stroke="#000000" d="M272.4172,-77.493C267.3797,-69.3016 261.2966,-59.41 255.6314,-50.1978"/>
<polygon fill="#000000" stroke="#000000" points="258.5955,-48.3362 250.3756,-41.6515 252.6327,-52.0031 258.5955,-48.3362"/>
</g>
<!-- 10 -->
<g id="node9" class="node">
<title>10</title>
<polygon fill="#c1b2ff" stroke="#c1b2ff" points="374.1576,-41.4019 294.9474,-41.4019 294.9474,-.1981 374.1576,-.1981 374.1576,-41.4019"/>
<text text-anchor="middle" x="334.5525" y="-25" font-family="Times,serif" font-size="14.00" fill="#000000"> leaf node</text>
<text text-anchor="middle" x="334.5525" y="-8.2" font-family="Times,serif" font-size="14.00" fill="#000000"> action = 2 </text>
</g>
<!-- 4&#45;&gt;10 -->
<g id="edge8" class="edge">
<title>4&#45;&gt;10</title>
<path fill="none" stroke="#000000" d="M295.8982,-77.493C301.4832,-69.3016 308.2275,-59.41 314.5085,-50.1978"/>
<polygon fill="#000000" stroke="#000000" points="317.594,-51.8855 320.3356,-41.6515 311.8104,-47.9421 317.594,-51.8855"/>
</g>
<!-- 11 -->
<g id="node12" class="node">
<title>11</title>
<polygon fill="#c1b2ff" stroke="#c1b2ff" points="473.1576,-41.4019 393.9474,-41.4019 393.9474,-.1981 473.1576,-.1981 473.1576,-41.4019"/>
<text text-anchor="middle" x="433.5525" y="-25" font-family="Times,serif" font-size="14.00" fill="#000000"> leaf node</text>
<text text-anchor="middle" x="433.5525" y="-8.2" font-family="Times,serif" font-size="14.00" fill="#000000"> action = 5 </text>
</g>
<!-- 5&#45;&gt;11 -->
<g id="edge11" class="edge">
<title>5&#45;&gt;11</title>
<path fill="none" stroke="#000000" d="M450.9848,-77.493C448.57,-69.6394 445.6745,-60.2229 442.9434,-51.3408"/>
<polygon fill="#000000" stroke="#000000" points="446.2486,-50.1812 439.9641,-41.6515 439.5578,-52.2385 446.2486,-50.1812"/>
</g>
<!-- 12 -->
<g id="node13" class="node">
<title>12</title>
<polygon fill="#c1b2ff" stroke="#c1b2ff" points="570.1576,-41.4019 490.9474,-41.4019 490.9474,-.1981 570.1576,-.1981 570.1576,-41.4019"/>
<text text-anchor="middle" x="530.5525" y="-25" font-family="Times,serif" font-size="14.00" fill="#000000"> leaf node</text>
<text text-anchor="middle" x="530.5525" y="-8.2" font-family="Times,serif" font-size="14.00" fill="#000000"> action = 3 </text>
</g>
<!-- 5&#45;&gt;12 -->
<g id="edge12" class="edge">
<title>5&#45;&gt;12</title>
<path fill="none" stroke="#000000" d="M474.4658,-77.493C482.9873,-68.8794 493.3688,-58.3857 502.8727,-48.779"/>
<polygon fill="#000000" stroke="#000000" points="505.3792,-51.2221 509.924,-41.6515 500.4029,-46.299 505.3792,-51.2221"/>
</g>
<!-- 13 -->
<g id="node14" class="node">
<title>13</title>
<polygon fill="#c1b2ff" stroke="#c1b2ff" points="668.1576,-41.4019 588.9474,-41.4019 588.9474,-.1981 668.1576,-.1981 668.1576,-41.4019"/>
<text text-anchor="middle" x="628.5525" y="-25" font-family="Times,serif" font-size="14.00" fill="#000000"> leaf node</text>
<text text-anchor="middle" x="628.5525" y="-8.2" font-family="Times,serif" font-size="14.00" fill="#000000"> action = 2 </text>
</g>
<!-- 6&#45;&gt;13 -->
<g id="edge13" class="edge">
<title>6&#45;&gt;13</title>
<path fill="none" stroke="#000000" d="M629.3104,-77.493C629.2077,-69.8083 629.0849,-60.6272 628.9685,-51.9145"/>
<polygon fill="#000000" stroke="#000000" points="632.4647,-51.6038 628.8313,-41.6515 625.4654,-51.6974 632.4647,-51.6038"/>
</g>
<!-- 14 -->
<g id="node15" class="node">
<title>14</title>
<polygon fill="#c1b2ff" stroke="#c1b2ff" points="765.1576,-41.4019 685.9474,-41.4019 685.9474,-.1981 765.1576,-.1981 765.1576,-41.4019"/>
<text text-anchor="middle" x="725.5525" y="-25" font-family="Times,serif" font-size="14.00" fill="#000000"> leaf node</text>
<text text-anchor="middle" x="725.5525" y="-8.2" font-family="Times,serif" font-size="14.00" fill="#000000"> action = 5 </text>
</g>
<!-- 6&#45;&gt;14 -->
<g id="edge14" class="edge">
<title>6&#45;&gt;14</title>
<path fill="none" stroke="#000000" d="M652.7914,-77.493C664.1714,-68.6261 678.1085,-57.7668 690.7284,-47.9338"/>
<polygon fill="#000000" stroke="#000000" points="693.0542,-50.5587 698.7912,-41.6515 688.7518,-45.0369 693.0542,-50.5587"/>
</g>
</g>
</svg>
