<?xml version="1.0" encoding="UTF-8" standalone="no"?>
<!DOCTYPE svg PUBLIC "-//W3C//DTD SVG 1.1//EN"
 "http://www.w3.org/Graphics/SVG/1.1/DTD/svg11.dtd">
<!-- Generated by graphviz version 2.40.1 (20161225.0304)
 -->
<!-- Title: nodes Pages: 1 -->
<svg width="1542pt" height="338pt"
 viewBox="0.00 0.00 1542.11 337.60" xmlns="http://www.w3.org/2000/svg" xmlns:xlink="http://www.w3.org/1999/xlink">
<g id="graph0" class="graph" transform="scale(1 1) rotate(0) translate(4 333.6)">
<title>nodes</title>
<polygon fill="#ffffff" stroke="transparent" points="-4,4 -4,-333.6 1538.105,-333.6 1538.105,4 -4,4"/>
<!-- 0 -->
<g id="node1" class="node">
<title>0</title>
<polygon fill="none" stroke="#000000" points="854.0823,-329.6 699.0227,-329.6 699.0227,-293.6 854.0823,-293.6 854.0823,-329.6"/>
<text text-anchor="middle" x="776.5525" y="-307.4" font-family="Times,serif" font-size="14.00" fill="#000000"> market_distance &lt;= 7.5 </text>
</g>
<!-- 1 -->
<g id="node2" class="node">
<title>1</title>
<polygon fill="none" stroke="#000000" points="658.7282,-257.6 528.3768,-257.6 528.3768,-221.6 658.7282,-221.6 658.7282,-257.6"/>
<text text-anchor="middle" x="593.5525" y="-235.4" font-family="Times,serif" font-size="14.00" fill="#000000"> longitude &lt;= 86.18 </text>
</g>
<!-- 0&#45;&gt;1 -->
<g id="edge1" class="edge">
<title>0&#45;&gt;1</title>
<path fill="none" stroke="#000000" d="M730.3739,-293.4314C705.5724,-283.6734 674.8275,-271.577 648.7682,-261.3242"/>
<polygon fill="#000000" stroke="#000000" points="649.9862,-258.0423 639.3991,-257.638 647.4233,-264.5563 649.9862,-258.0423"/>
<text text-anchor="middle" x="649.3771" y="-276.3605" font-family="Times,serif" font-size="14.00" fill="#000000">True</text>
</g>
<!-- 2 -->
<g id="node3" class="node">
<title>2</title>
<polygon fill="none" stroke="#000000" points="1023.7282,-257.6 893.3768,-257.6 893.3768,-221.6 1023.7282,-221.6 1023.7282,-257.6"/>
<text text-anchor="middle" x="958.5525" y="-235.4" font-family="Times,serif" font-size="14.00" fill="#000000"> longitude &lt;= 84.46 </text>
</g>
<!-- 0&#45;&gt;2 -->
<g id="edge2" class="edge">
<title>0&#45;&gt;2</title>
<path fill="none" stroke="#000000" d="M822.4788,-293.4314C847.1448,-283.6734 877.7216,-271.577 903.6385,-261.3242"/>
<polygon fill="#000000" stroke="#000000" points="904.9452,-264.5713 912.9565,-257.638 902.3701,-258.0621 904.9452,-264.5713"/>
<text text-anchor="middle" x="903.0214" y="-276.3791" font-family="Times,serif" font-size="14.00" fill="#000000">False</text>
</g>
<!-- 3 -->
<g id="node4" class="node">
<title>3</title>
<polygon fill="none" stroke="#000000" points="388.7282,-185.6 258.3768,-185.6 258.3768,-149.6 388.7282,-149.6 388.7282,-185.6"/>
<text text-anchor="middle" x="323.5525" y="-163.4" font-family="Times,serif" font-size="14.00" fill="#000000"> longitude &lt;= 85.34 </text>
</g>
<!-- 1&#45;&gt;3 -->
<g id="edge3" class="edge">
<title>1&#45;&gt;3</title>
<path fill="none" stroke="#000000" d="M528.193,-222.1708C489.12,-211.7513 439.3291,-198.4738 398.6443,-187.6245"/>
<polygon fill="#000000" stroke="#000000" points="399.3417,-184.1882 388.7775,-184.9933 397.538,-190.9518 399.3417,-184.1882"/>
</g>
<!-- 4 -->
<g id="node5" class="node">
<title>4</title>
<polygon fill="none" stroke="#000000" points="658.7282,-185.6 528.3768,-185.6 528.3768,-149.6 658.7282,-149.6 658.7282,-185.6"/>
<text text-anchor="middle" x="593.5525" y="-163.4" font-family="Times,serif" font-size="14.00" fill="#000000"> longitude &lt;= 87.44 </text>
</g>
<!-- 1&#45;&gt;4 -->
<g id="edge4" class="edge">
<title>1&#45;&gt;4</title>
<path fill="none" stroke="#000000" d="M593.5525,-221.4314C593.5525,-213.731 593.5525,-204.5743 593.5525,-196.0166"/>
<polygon fill="#000000" stroke="#000000" points="597.0526,-196.0132 593.5525,-186.0133 590.0526,-196.0133 597.0526,-196.0132"/>
</g>
<!-- 5 -->
<g id="node18" class="node">
<title>5</title>
<polygon fill="none" stroke="#000000" points="1020.2282,-185.6 896.8768,-185.6 896.8768,-149.6 1020.2282,-149.6 1020.2282,-185.6"/>
<text text-anchor="middle" x="958.5525" y="-163.4" font-family="Times,serif" font-size="14.00" fill="#000000"> longitude &lt;= 83.5 </text>
</g>
<!-- 2&#45;&gt;5 -->
<g id="edge17" class="edge">
<title>2&#45;&gt;5</title>
<path fill="none" stroke="#000000" d="M958.5525,-221.4314C958.5525,-213.731 958.5525,-204.5743 958.5525,-196.0166"/>
<polygon fill="#000000" stroke="#000000" points="962.0526,-196.0132 958.5525,-186.0133 955.0526,-196.0133 962.0526,-196.0132"/>
</g>
<!-- 6 -->
<g id="node19" class="node">
<title>6</title>
<polygon fill="none" stroke="#000000" points="1276.7282,-185.6 1146.3768,-185.6 1146.3768,-149.6 1276.7282,-149.6 1276.7282,-185.6"/>
<text text-anchor="middle" x="1211.5525" y="-163.4" font-family="Times,serif" font-size="14.00" fill="#000000"> longitude &lt;= 85.67 </text>
</g>
<!-- 2&#45;&gt;6 -->
<g id="edge18" class="edge">
<title>2&#45;&gt;6</title>
<path fill="none" stroke="#000000" d="M1022.0685,-221.5243C1057.407,-211.4675 1101.5496,-198.9052 1138.3362,-188.4363"/>
<polygon fill="#000000" stroke="#000000" points="1139.3503,-191.7867 1148.0103,-185.6831 1137.4342,-185.054 1139.3503,-191.7867"/>
</g>
<!-- 7 -->
<g id="node6" class="node">
<title>7</title>
<polygon fill="none" stroke="#000000" points="208.5831,-113.6 64.5219,-113.6 64.5219,-77.6 208.5831,-77.6 208.5831,-113.6"/>
<text text-anchor="middle" x="136.5525" y="-91.4" font-family="Times,serif" font-size="14.00" fill="#000000"> market_distance &lt;= 6 </text>
</g>
<!-- 3&#45;&gt;7 -->
<g id="edge5" class="edge">
<title>3&#45;&gt;7</title>
<path fill="none" stroke="#000000" d="M276.3645,-149.4314C251.0209,-139.6734 219.604,-127.577 192.9751,-117.3242"/>
<polygon fill="#000000" stroke="#000000" points="193.991,-113.9649 183.4012,-113.638 191.4757,-120.4974 193.991,-113.9649"/>
</g>
<!-- 8 -->
<g id="node7" class="node">
<title>8</title>
<polygon fill="none" stroke="#000000" points="413.0997,-113.6 234.0053,-113.6 234.0053,-77.6 413.0997,-77.6 413.0997,-113.6"/>
<text text-anchor="middle" x="323.5525" y="-91.4" font-family="Times,serif" font-size="14.00" fill="#000000"> drought_severity_num &lt;= 3 </text>
</g>
<!-- 3&#45;&gt;8 -->
<g id="edge6" class="edge">
<title>3&#45;&gt;8</title>
<path fill="none" stroke="#000000" d="M323.5525,-149.4314C323.5525,-141.731 323.5525,-132.5743 323.5525,-124.0166"/>
<polygon fill="#000000" stroke="#000000" points="327.0526,-124.0132 323.5525,-114.0133 320.0526,-124.0133 327.0526,-124.0132"/>
</g>
<!-- 9 -->
<g id="node12" class="node">
<title>9</title>
<polygon fill="none" stroke="#000000" points="579.7282,-113.6 449.3768,-113.6 449.3768,-77.6 579.7282,-77.6 579.7282,-113.6"/>
<text text-anchor="middle" x="514.5525" y="-91.4" font-family="Times,serif" font-size="14.00" fill="#000000"> longitude &lt;= 87.03 </text>
</g>
<!-- 4&#45;&gt;9 -->
<g id="edge11" class="edge">
<title>4&#45;&gt;9</title>
<path fill="none" stroke="#000000" d="M573.6175,-149.4314C564.0742,-140.7337 552.4926,-130.1783 542.1219,-120.7265"/>
<polygon fill="#000000" stroke="#000000" points="544.2297,-117.9121 534.4812,-113.7628 539.5145,-123.0857 544.2297,-117.9121"/>
</g>
<!-- 10 -->
<g id="node13" class="node">
<title>10</title>
<polygon fill="none" stroke="#000000" points="747.2711,-113.6 597.8339,-113.6 597.8339,-77.6 747.2711,-77.6 747.2711,-113.6"/>
<text text-anchor="middle" x="672.5525" y="-91.4" font-family="Times,serif" font-size="14.00" fill="#000000"> irrigation_times &lt;= 13 </text>
</g>
<!-- 4&#45;&gt;10 -->
<g id="edge12" class="edge">
<title>4&#45;&gt;10</title>
<path fill="none" stroke="#000000" d="M613.4875,-149.4314C623.0308,-140.7337 634.6124,-130.1783 644.9831,-120.7265"/>
<polygon fill="#000000" stroke="#000000" points="647.5905,-123.0857 652.6238,-113.7628 642.8753,-117.9121 647.5905,-123.0857"/>
</g>
<!-- 15 -->
<g id="node8" class="node">
<title>15</title>
<polygon fill="#c1b2ff" stroke="#c1b2ff" points="79.1576,-41.4019 -.0526,-41.4019 -.0526,-.1981 79.1576,-.1981 79.1576,-41.4019"/>
<text text-anchor="middle" x="39.5525" y="-25" font-family="Times,serif" font-size="14.00" fill="#000000"> leaf node</text>
<text text-anchor="middle" x="39.5525" y="-8.2" font-family="Times,serif" font-size="14.00" fill="#000000"> action = 5 </text>
</g>
<!-- 7&#45;&gt;15 -->
<g id="edge7" class="edge">
<title>7&#45;&gt;15</title>
<path fill="none" stroke="#000000" d="M113.0715,-77.493C101.5729,-68.6261 87.4907,-57.7668 74.7393,-47.9338"/>
<polygon fill="#000000" stroke="#000000" points="76.6488,-44.9865 66.5926,-41.6515 72.3742,-50.5298 76.6488,-44.9865"/>
</g>
<!-- 16 -->
<g id="node9" class="node">
<title>16</title>
<polygon fill="#c1b2ff" stroke="#c1b2ff" points="176.1576,-41.4019 96.9474,-41.4019 96.9474,-.1981 176.1576,-.1981 176.1576,-41.4019"/>
<text text-anchor="middle" x="136.5525" y="-25" font-family="Times,serif" font-size="14.00" fill="#000000"> leaf node</text>
<text text-anchor="middle" x="136.5525" y="-8.2" font-family="Times,serif" font-size="14.00" fill="#000000"> action = 2 </text>
</g>
<!-- 7&#45;&gt;16 -->
<g id="edge8" class="edge">
<title>7&#45;&gt;16</title>
<path fill="none" stroke="#000000" d="M136.5525,-77.493C136.5525,-69.8083 136.5525,-60.6272 136.5525,-51.9145"/>
<polygon fill="#000000" stroke="#000000" points="140.0526,-51.6515 136.5525,-41.6515 133.0526,-51.6515 140.0526,-51.6515"/>
</g>
<!-- 17 -->
<g id="node10" class="node">
<title>17</title>
<polygon fill="#c1b2ff" stroke="#c1b2ff" points="273.1576,-41.4019 193.9474,-41.4019 193.9474,-.1981 273.1576,-.1981 273.1576,-41.4019"/>
<text text-anchor="middle" x="233.5525" y="-25" font-family="Times,serif" font-size="14.00" fill="#000000"> leaf node</text>
<text text-anchor="middle" x="233.5525" y="-8.2" font-family="Times,serif" font-size="14.00" fill="#000000"> action = 2 </text>
</g>
<!-- 8&#45;&gt;17 -->
<g id="edge9" class="edge">
<title>8&#45;&gt;17</title>
<path fill="none" stroke="#000000" d="M301.766,-77.493C291.1988,-68.7105 278.2799,-57.9734 266.5384,-48.215"/>
<polygon fill="#000000" stroke="#000000" points="268.569,-45.3516 258.6412,-41.6515 264.0947,-50.735 268.569,-45.3516"/>
</g>
<!-- 18 -->
<g id="node11" class="node">
<title>18</title>
<polygon fill="#c1b2ff" stroke="#c1b2ff" points="370.1576,-41.4019 290.9474,-41.4019 290.9474,-.1981 370.1576,-.1981 370.1576,-41.4019"/>
<text text-anchor="middle" x="330.5525" y="-25" font-family="Times,serif" font-size="14.00" fill="#000000"> leaf node</text>
<text text-anchor="middle" x="330.5525" y="-8.2" font-family="Times,serif" font-size="14.00" fill="#000000"> action = 5 </text>
</g>
<!-- 8&#45;&gt;18 -->
<g id="edge10" class="edge">
<title>8&#45;&gt;18</title>
<path fill="none" stroke="#000000" d="M325.247,-77.493C325.9741,-69.7239 326.8443,-60.4252 327.6676,-51.6275"/>
<polygon fill="#000000" stroke="#000000" points="331.1541,-51.9341 328.6012,-41.6515 324.1845,-51.2819 331.1541,-51.9341"/>
</g>
<!-- 19 -->
<g id="node14" class="node">
<title>19</title>
<polygon fill="#c1b2ff" stroke="#c1b2ff" points="467.1576,-41.4019 387.9474,-41.4019 387.9474,-.1981 467.1576,-.1981 467.1576,-41.4019"/>
<text text-anchor="middle" x="427.5525" y="-25" font-family="Times,serif" font-size="14.00" fill="#000000"> leaf node</text>
<text text-anchor="middle" x="427.5525" y="-8.2" font-family="Times,serif" font-size="14.00" fill="#000000"> action = 5 </text>
</g>
<!-- 9&#45;&gt;19 -->
<g id="edge13" class="edge">
<title>9&#45;&gt;19</title>
<path fill="none" stroke="#000000" d="M493.4922,-77.493C483.2773,-68.7105 470.789,-57.9734 459.4389,-48.215"/>
<polygon fill="#000000" stroke="#000000" points="461.6695,-45.517 451.8049,-41.6515 457.1059,-50.8249 461.6695,-45.517"/>
</g>
<!-- 20 -->
<g id="node15" class="node">
<title>20</title>
<polygon fill="#c1b2ff" stroke="#c1b2ff" points="564.1576,-41.4019 484.9474,-41.4019 484.9474,-.1981 564.1576,-.1981 564.1576,-41.4019"/>
<text text-anchor="middle" x="524.5525" y="-25" font-family="Times,serif" font-size="14.00" fill="#000000"> leaf node</text>
<text text-anchor="middle" x="524.5525" y="-8.2" font-family="Times,serif" font-size="14.00" fill="#000000"> action = 2 </text>
</g>
<!-- 9&#45;&gt;20 -->
<g id="edge14" class="edge">
<title>9&#45;&gt;20</title>
<path fill="none" stroke="#000000" d="M516.9732,-77.493C518.0119,-69.7239 519.255,-60.4252 520.4312,-51.6275"/>
<polygon fill="#000000" stroke="#000000" points="523.9088,-52.0271 521.7649,-41.6515 516.9705,-51.0995 523.9088,-52.0271"/>
</g>
<!-- 21 -->
<g id="node16" class="node">
<title>21</title>
<polygon fill="#c1b2ff" stroke="#c1b2ff" points="661.1576,-41.4019 581.9474,-41.4019 581.9474,-.1981 661.1576,-.1981 661.1576,-41.4019"/>
<text text-anchor="middle" x="621.5525" y="-25" font-family="Times,serif" font-size="14.00" fill="#000000"> leaf node</text>
<text text-anchor="middle" x="621.5525" y="-8.2" font-family="Times,serif" font-size="14.00" fill="#000000"> action = 5 </text>
</g>
<!-- 10&#45;&gt;21 -->
<g id="edge15" class="edge">
<title>10&#45;&gt;21</title>
<path fill="none" stroke="#000000" d="M660.2068,-77.493C654.6218,-69.3016 647.8775,-59.41 641.5965,-50.1978"/>
<polygon fill="#000000" stroke="#000000" points="644.2946,-47.9421 635.7694,-41.6515 638.511,-51.8855 644.2946,-47.9421"/>
</g>
<!-- 22 -->
<g id="node17" class="node">
<title>22</title>
<polygon fill="#c1b2ff" stroke="#c1b2ff" points="758.1576,-41.4019 678.9474,-41.4019 678.9474,-.1981 758.1576,-.1981 758.1576,-41.4019"/>
<text text-anchor="middle" x="718.5525" y="-25" font-family="Times,serif" font-size="14.00" fill="#000000"> leaf node</text>
<text text-anchor="middle" x="718.5525" y="-8.2" font-family="Times,serif" font-size="14.00" fill="#000000"> action = 3 </text>
</g>
<!-- 10&#45;&gt;22 -->
<g id="edge16" class="edge">
<title>10&#45;&gt;22</title>
<path fill="none" stroke="#000000" d="M683.6878,-77.493C688.7253,-69.3016 694.8084,-59.41 700.4736,-50.1978"/>
<polygon fill="#000000" stroke="#000000" points="703.4723,-52.0031 705.7294,-41.6515 697.5095,-48.3362 703.4723,-52.0031"/>
</g>
<!-- 11 -->
<g id="node20" class="node">
<title>11</title>
<polygon fill="none" stroke="#000000" points="952.7711,-113.6 810.3339,-113.6 810.3339,-77.6 952.7711,-77.6 952.7711,-113.6"/>
<text text-anchor="middle" x="881.5525" y="-91.4" font-family="Times,serif" font-size="14.00" fill="#000000"> irrigation_times &lt;= 9 </text>
</g>
<!-- 5&#45;&gt;11 -->
<g id="edge19" class="edge">
<title>5&#45;&gt;11</title>
<path fill="none" stroke="#000000" d="M939.1221,-149.4314C929.8205,-140.7337 918.5321,-130.1783 908.4239,-120.7265"/>
<polygon fill="#000000" stroke="#000000" points="910.6714,-118.0363 900.9766,-113.7628 905.8904,-123.1493 910.6714,-118.0363"/>
</g>
<!-- 12 -->
<g id="node21" class="node">
<title>12</title>
<polygon fill="none" stroke="#000000" points="1100.7282,-113.6 970.3768,-113.6 970.3768,-77.6 1100.7282,-77.6 1100.7282,-113.6"/>
<text text-anchor="middle" x="1035.5525" y="-91.4" font-family="Times,serif" font-size="14.00" fill="#000000"> longitude &lt;= 83.85 </text>
</g>
<!-- 5&#45;&gt;12 -->
<g id="edge20" class="edge">
<title>5&#45;&gt;12</title>
<path fill="none" stroke="#000000" d="M977.9829,-149.4314C987.2845,-140.7337 998.5729,-130.1783 1008.6811,-120.7265"/>
<polygon fill="#000000" stroke="#000000" points="1011.2146,-123.1493 1016.1284,-113.7628 1006.4336,-118.0363 1011.2146,-123.1493"/>
</g>
<!-- 13 -->
<g id="node26" class="node">
<title>13</title>
<polygon fill="none" stroke="#000000" points="1287.083,-113.6 1136.022,-113.6 1136.022,-77.6 1287.083,-77.6 1287.083,-113.6"/>
<text text-anchor="middle" x="1211.5525" y="-91.4" font-family="Times,serif" font-size="14.00" fill="#000000"> market_distance &lt;= 12 </text>
</g>
<!-- 6&#45;&gt;13 -->
<g id="edge25" class="edge">
<title>6&#45;&gt;13</title>
<path fill="none" stroke="#000000" d="M1211.5525,-149.4314C1211.5525,-141.731 1211.5525,-132.5743 1211.5525,-124.0166"/>
<polygon fill="#000000" stroke="#000000" points="1215.0526,-124.0132 1211.5525,-114.0133 1208.0526,-124.0133 1215.0526,-124.0132"/>
</g>
<!-- 14 -->
<g id="node27" class="node">
<title>14</title>
<polygon fill="none" stroke="#000000" points="1481.7033,-113.6 1313.4017,-113.6 1313.4017,-77.6 1481.7033,-77.6 1481.7033,-113.6"/>
<text text-anchor="middle" x="1397.5525" y="-91.4" font-family="Times,serif" font-size="14.00" fill="#000000"> insect_severity_num &lt;= 1 </text>
</g>
<!-- 6&#45;&gt;14 -->
<g id="edge26" class="edge">
<title>6&#45;&gt;14</title>
<path fill="none" stroke="#000000" d="M1258.4882,-149.4314C1283.6962,-139.6734 1314.9451,-127.577 1341.4316,-117.3242"/>
<polygon fill="#000000" stroke="#000000" points="1342.8922,-120.512 1350.9544,-113.638 1340.3652,-113.984 1342.8922,-120.512"/>
</g>
<!-- 23 -->
<g id="node22" class="node">
<title>23</title>
<polygon fill="#c1b2ff" stroke="#c1b2ff" points="855.1576,-41.4019 775.9474,-41.4019 775.9474,-.1981 855.1576,-.1981 855.1576,-41.4019"/>
<text text-anchor="middle" x="815.5525" y="-25" font-family="Times,serif" font-size="14.00" fill="#000000"> leaf node</text>
<text text-anchor="middle" x="815.5525" y="-8.2" font-family="Times,serif" font-size="14.00" fill="#000000"> action = 5 </text>
</g>
<!-- 11&#45;&gt;23 -->
<g id="edge21" class="edge">
<title>11&#45;&gt;23</title>
<path fill="none" stroke="#000000" d="M865.5757,-77.493C858.1245,-69.0483 849.0788,-58.7965 840.7394,-49.3451"/>
<polygon fill="#000000" stroke="#000000" points="843.1916,-46.8342 833.9509,-41.6515 837.9427,-51.4656 843.1916,-46.8342"/>
</g>
<!-- 24 -->
<g id="node23" class="node">
<title>24</title>
<polygon fill="#c1b2ff" stroke="#c1b2ff" points="952.1576,-41.4019 872.9474,-41.4019 872.9474,-.1981 952.1576,-.1981 952.1576,-41.4019"/>
<text text-anchor="middle" x="912.5525" y="-25" font-family="Times,serif" font-size="14.00" fill="#000000"> leaf node</text>
<text text-anchor="middle" x="912.5525" y="-8.2" font-family="Times,serif" font-size="14.00" fill="#000000"> action = 3 </text>
</g>
<!-- 11&#45;&gt;24 -->
<g id="edge22" class="edge">
<title>11&#45;&gt;24</title>
<path fill="none" stroke="#000000" d="M889.0567,-77.493C892.3466,-69.555 896.2981,-60.0202 900.0139,-51.0545"/>
<polygon fill="#000000" stroke="#000000" points="903.3155,-52.2296 903.9108,-41.6515 896.8488,-49.5495 903.3155,-52.2296"/>
</g>
<!-- 25 -->
<g id="node24" class="node">
<title>25</title>
<polygon fill="#c1b2ff" stroke="#c1b2ff" points="1049.1576,-41.4019 969.9474,-41.4019 969.9474,-.1981 1049.1576,-.1981 1049.1576,-41.4019"/>
<text text-anchor="middle" x="1009.5525" y="-25" font-family="Times,serif" font-size="14.00" fill="#000000"> leaf node</text>
<text text-anchor="middle" x="1009.5525" y="-8.2" font-family="Times,serif" font-size="14.00" fill="#000000"> action = 2 </text>
</g>
<!-- 12&#45;&gt;25 -->
<g id="edge23" class="edge">
<title>12&#45;&gt;25</title>
<path fill="none" stroke="#000000" d="M1029.2586,-77.493C1026.5288,-69.6394 1023.2556,-60.2229 1020.1683,-51.3408"/>
<polygon fill="#000000" stroke="#000000" points="1023.3896,-49.948 1016.8003,-41.6515 1016.7777,-52.2463 1023.3896,-49.948"/>
</g>
<!-- 26 -->
<g id="node25" class="node">
<title>26</title>
<polygon fill="#c1b2ff" stroke="#c1b2ff" points="1146.1576,-41.4019 1066.9474,-41.4019 1066.9474,-.1981 1146.1576,-.1981 1146.1576,-41.4019"/>
<text text-anchor="middle" x="1106.5525" y="-25" font-family="Times,serif" font-size="14.00" fill="#000000"> leaf node</text>
<text text-anchor="middle" x="1106.5525" y="-8.2" font-family="Times,serif" font-size="14.00" fill="#000000"> action = 1 </text>
</g>
<!-- 12&#45;&gt;26 -->
<g id="edge24" class="edge">
<title>12&#45;&gt;26</title>
<path fill="none" stroke="#000000" d="M1052.7396,-77.493C1060.8355,-68.9639 1070.6811,-58.5913 1079.7264,-49.0618"/>
<polygon fill="#000000" stroke="#000000" points="1082.4144,-51.314 1086.7603,-41.6515 1077.3373,-46.4949 1082.4144,-51.314"/>
</g>
<!-- 27 -->
<g id="node28" class="node">
<title>27</title>
<polygon fill="#c1b2ff" stroke="#c1b2ff" points="1243.1576,-41.4019 1163.9474,-41.4019 1163.9474,-.1981 1243.1576,-.1981 1243.1576,-41.4019"/>
<text text-anchor="middle" x="1203.5525" y="-25" font-family="Times,serif" font-size="14.00" fill="#000000"> leaf node</text>
<text text-anchor="middle" x="1203.5525" y="-8.2" font-family="Times,serif" font-size="14.00" fill="#000000"> action = 2 </text>
</g>
<!-- 13&#45;&gt;27 -->
<g id="edge27" class="edge">
<title>13&#45;&gt;27</title>
<path fill="none" stroke="#000000" d="M1209.6159,-77.493C1208.785,-69.7239 1207.7905,-60.4252 1206.8496,-51.6275"/>
<polygon fill="#000000" stroke="#000000" points="1210.3263,-51.2226 1205.7826,-41.6515 1203.366,-51.967 1210.3263,-51.2226"/>
</g>
<!-- 28 -->
<g id="node29" class="node">
<title>28</title>
<polygon fill="#c1b2ff" stroke="#c1b2ff" points="1340.1576,-41.4019 1260.9474,-41.4019 1260.9474,-.1981 1340.1576,-.1981 1340.1576,-41.4019"/>
<text text-anchor="middle" x="1300.5525" y="-25" font-family="Times,serif" font-size="14.00" fill="#000000"> leaf node</text>
<text text-anchor="middle" x="1300.5525" y="-8.2" font-family="Times,serif" font-size="14.00" fill="#000000"> action = 5 </text>
</g>
<!-- 13&#45;&gt;28 -->
<g id="edge28" class="edge">
<title>13&#45;&gt;28</title>
<path fill="none" stroke="#000000" d="M1233.0969,-77.493C1243.5467,-68.7105 1256.3221,-57.9734 1267.9331,-48.215"/>
<polygon fill="#000000" stroke="#000000" points="1270.3391,-50.7649 1275.7426,-41.6515 1265.8353,-45.4061 1270.3391,-50.7649"/>
</g>
<!-- 29 -->
<g id="node30" class="node">
<title>29</title>
<polygon fill="#c1b2ff" stroke="#c1b2ff" points="1437.1576,-41.4019 1357.9474,-41.4019 1357.9474,-.1981 1437.1576,-.1981 1437.1576,-41.4019"/>
<text text-anchor="middle" x="1397.5525" y="-25" font-family="Times,serif" font-size="14.00" fill="#000000"> leaf node</text>
<text text-anchor="middle" x="1397.5525" y="-8.2" font-family="Times,serif" font-size="14.00" fill="#000000"> action = 3 </text>
</g>
<!-- 14&#45;&gt;29 -->
<g id="edge29" class="edge">
<title>14&#45;&gt;29</title>
<path fill="none" stroke="#000000" d="M1397.5525,-77.493C1397.5525,-69.8083 1397.5525,-60.6272 1397.5525,-51.9145"/>
<polygon fill="#000000" stroke="#000000" points="1401.0526,-51.6515 1397.5525,-41.6515 1394.0526,-51.6515 1401.0526,-51.6515"/>
</g>
<!-- 30 -->
<g id="node31" class="node">
<title>30</title>
<polygon fill="#c1b2ff" stroke="#c1b2ff" points="1534.1576,-41.4019 1454.9474,-41.4019 1454.9474,-.1981 1534.1576,-.1981 1534.1576,-41.4019"/>
<text text-anchor="middle" x="1494.5525" y="-25" font-family="Times,serif" font-size="14.00" fill="#000000"> leaf node</text>
<text text-anchor="middle" x="1494.5525" y="-8.2" font-family="Times,serif" font-size="14.00" fill="#000000"> action = 5 </text>
</g>
<!-- 14&#45;&gt;30 -->
<g id="edge30" class="edge">
<title>14&#45;&gt;30</title>
<path fill="none" stroke="#000000" d="M1421.0335,-77.493C1432.5321,-68.6261 1446.6143,-57.7668 1459.3657,-47.9338"/>
<polygon fill="#000000" stroke="#000000" points="1461.7308,-50.5298 1467.5124,-41.6515 1457.4562,-44.9865 1461.7308,-50.5298"/>
</g>
</g>
</svg>
