<?xml version="1.0" encoding="UTF-8" standalone="no"?>
<!DOCTYPE svg PUBLIC "-//W3C//DTD SVG 1.1//EN"
 "http://www.w3.org/Graphics/SVG/1.1/DTD/svg11.dtd">
<!-- Generated by graphviz version 2.40.1 (20161225.0304)
 -->
<!-- Title: nodes Pages: 1 -->
<svg width="409pt" height="194pt"
 viewBox="0.00 0.00 409.11 193.60" xmlns="http://www.w3.org/2000/svg" xmlns:xlink="http://www.w3.org/1999/xlink">
<g id="graph0" class="graph" transform="scale(1 1) rotate(0) translate(4 189.6)">
<title>nodes</title>
<polygon fill="#ffffff" stroke="transparent" points="-4,4 -4,-189.6 405.105,-189.6 405.105,4 -4,4"/>
<!-- 0 -->
<g id="node1" class="node">
<title>0</title>
<polygon fill="none" stroke="#000000" points="277.0823,-185.6 122.0227,-185.6 122.0227,-149.6 277.0823,-149.6 277.0823,-185.6"/>
<text text-anchor="middle" x="199.5525" y="-163.4" font-family="Times,serif" font-size="14.00" fill="#000000"> market_distance &lt;= 7.5 </text>
</g>
<!-- 1 -->
<g id="node2" class="node">
<title>1</title>
<polygon fill="none" stroke="#000000" points="185.7282,-113.6 55.3768,-113.6 55.3768,-77.6 185.7282,-77.6 185.7282,-113.6"/>
<text text-anchor="middle" x="120.5525" y="-91.4" font-family="Times,serif" font-size="14.00" fill="#000000"> longitude &lt;= 87.03 </text>
</g>
<!-- 0&#45;&gt;1 -->
<g id="edge1" class="edge">
<title>0&#45;&gt;1</title>
<path fill="none" stroke="#000000" d="M179.6175,-149.4314C170.0742,-140.7337 158.4926,-130.1783 148.1219,-120.7265"/>
<polygon fill="#000000" stroke="#000000" points="150.2297,-117.9121 140.4812,-113.7628 145.5145,-123.0857 150.2297,-117.9121"/>
<text text-anchor="middle" x="141.6389" y="-134.536" font-family="Times,serif" font-size="14.00" fill="#000000">True</text>
</g>
<!-- 2 -->
<g id="node3" class="node">
<title>2</title>
<polygon fill="none" stroke="#000000" points="355.083,-113.6 204.022,-113.6 204.022,-77.6 355.083,-77.6 355.083,-113.6"/>
<text text-anchor="middle" x="279.5525" y="-91.4" font-family="Times,serif" font-size="14.00" fill="#000000"> market_distance &lt;= 10 </text>
</g>
<!-- 0&#45;&gt;2 -->
<g id="edge2" class="edge">
<title>0&#45;&gt;2</title>
<path fill="none" stroke="#000000" d="M219.7399,-149.4314C229.4039,-140.7337 241.1321,-130.1783 251.6341,-120.7265"/>
<polygon fill="#000000" stroke="#000000" points="254.28,-123.054 259.3716,-113.7628 249.5972,-117.851 254.28,-123.054"/>
<text text-anchor="middle" x="258.0576" y="-134.5283" font-family="Times,serif" font-size="14.00" fill="#000000">False</text>
</g>
<!-- 3 -->
<g id="node4" class="node">
<title>3</title>
<polygon fill="#c1b2ff" stroke="#c1b2ff" points="79.1576,-41.4019 -.0526,-41.4019 -.0526,-.1981 79.1576,-.1981 79.1576,-41.4019"/>
<text text-anchor="middle" x="39.5525" y="-25" font-family="Times,serif" font-size="14.00" fill="#000000"> leaf node</text>
<text text-anchor="middle" x="39.5525" y="-8.2" font-family="Times,serif" font-size="14.00" fill="#000000"> action = 5 </text>
</g>
<!-- 1&#45;&gt;3 -->
<g id="edge3" class="edge">
<title>1&#45;&gt;3</title>
<path fill="none" stroke="#000000" d="M100.9447,-77.493C91.5257,-68.795 80.0306,-58.1797 69.545,-48.4967"/>
<polygon fill="#000000" stroke="#000000" points="71.8535,-45.8645 62.1323,-41.6515 67.1045,-51.0072 71.8535,-45.8645"/>
</g>
<!-- 4 -->
<g id="node5" class="node">
<title>4</title>
<polygon fill="#c1b2ff" stroke="#c1b2ff" points="176.1576,-41.4019 96.9474,-41.4019 96.9474,-.1981 176.1576,-.1981 176.1576,-41.4019"/>
<text text-anchor="middle" x="136.5525" y="-25" font-family="Times,serif" font-size="14.00" fill="#000000"> leaf node</text>
<text text-anchor="middle" x="136.5525" y="-8.2" font-family="Times,serif" font-size="14.00" fill="#000000"> action = 2 </text>
</g>
<!-- 1&#45;&gt;4 -->
<g id="edge4" class="edge">
<title>1&#45;&gt;4</title>
<path fill="none" stroke="#000000" d="M124.4257,-77.493C126.0875,-69.7239 128.0765,-60.4252 129.9584,-51.6275"/>
<polygon fill="#000000" stroke="#000000" points="133.4231,-52.1624 132.0923,-41.6515 126.5779,-50.6982 133.4231,-52.1624"/>
</g>
<!-- 5 -->
<g id="node6" class="node">
<title>5</title>
<polygon fill="#c1b2ff" stroke="#c1b2ff" points="304.1576,-41.4019 224.9474,-41.4019 224.9474,-.1981 304.1576,-.1981 304.1576,-41.4019"/>
<text text-anchor="middle" x="264.5525" y="-25" font-family="Times,serif" font-size="14.00" fill="#000000"> leaf node</text>
<text text-anchor="middle" x="264.5525" y="-8.2" font-family="Times,serif" font-size="14.00" fill="#000000"> action = 3 </text>
</g>
<!-- 2&#45;&gt;5 -->
<g id="edge5" class="edge">
<title>2&#45;&gt;5</title>
<path fill="none" stroke="#000000" d="M275.9214,-77.493C274.3634,-69.7239 272.4987,-60.4252 270.7345,-51.6275"/>
<polygon fill="#000000" stroke="#000000" points="274.1319,-50.7681 268.734,-41.6515 267.2686,-52.1445 274.1319,-50.7681"/>
</g>
<!-- 6 -->
<g id="node7" class="node">
<title>6</title>
<polygon fill="#c1b2ff" stroke="#c1b2ff" points="401.1576,-41.4019 321.9474,-41.4019 321.9474,-.1981 401.1576,-.1981 401.1576,-41.4019"/>
<text text-anchor="middle" x="361.5525" y="-25" font-family="Times,serif" font-size="14.00" fill="#000000"> leaf node</text>
<text text-anchor="middle" x="361.5525" y="-8.2" font-family="Times,serif" font-size="14.00" fill="#000000"> action = 5 </text>
</g>
<!-- 2&#45;&gt;6 -->
<g id="edge6" class="edge">
<title>2&#45;&gt;6</title>
<path fill="none" stroke="#000000" d="M299.4024,-77.493C308.9377,-68.795 320.5747,-58.1797 331.1898,-48.4967"/>
<polygon fill="#000000" stroke="#000000" points="333.6647,-50.9766 338.6939,-41.6515 328.9471,-45.805 333.6647,-50.9766"/>
</g>
</g>
</svg>
